<svg xmlns="http://www.w3.org/2000/svg" xmlns:xlink="http://www.w3.org/1999/xlink" width="500" zoomAndPan="magnify" viewBox="0 0 375 374.999991" height="500" preserveAspectRatio="xMidYMid meet" version="1.0"><defs><clipPath id="a817de2563"><path d="M 2.8125 0 L 287 0 L 287 307 L 2.8125 307 Z M 2.8125 0 " clip-rule="nonzero"/></clipPath><clipPath id="20a275cac3"><path d="M 24 20 L 372.5625 20 L 372.5625 375 L 24 375 Z M 24 20 " clip-rule="nonzero"/></clipPath></defs><g clip-path="url(#a817de2563)"><path fill="#004aad" d="M 99.898438 216.382812 C 81.40625 212.828125 70.382812 212.113281 70.382812 188.289062 L 70.382812 125.699219 C 128.949219 125.699219 157.085938 180.84375 188.085938 230.238281 L 136.9375 306.578125 L 154.144531 306.578125 L 196.515625 243.339844 C 219.441406 277.878906 245.40625 306.578125 286.910156 306.578125 L 286.910156 298.398438 C 253.4375 298.398438 240.75 252.421875 220.464844 207.59375 L 270.957031 132.242188 L 253.746094 132.242188 L 213.304688 192.605469 C 195.46875 157.511719 170.773438 126.519531 124.792969 123.5625 C 169.957031 116.808594 193.785156 96.539062 193.785156 62.039062 C 193.785156 17.945312 155.378906 0.164062 94.921875 0.164062 L 2.8125 0.164062 L 2.8125 7.988281 C 21.304688 11.542969 32.328125 12.257812 32.328125 36.082031 L 32.328125 188.289062 C 32.328125 212.113281 21.304688 212.828125 2.8125 216.382812 L 2.8125 224.207031 L 99.898438 224.207031 Z M 70.382812 29.324219 C 70.382812 18.65625 74.648438 12.96875 97.410156 12.96875 C 140.085938 12.96875 153.953125 36.082031 153.953125 64.535156 C 153.953125 92.625 140.441406 113.605469 93.496094 113.605469 L 70.382812 113.605469 Z M 70.382812 29.324219 " fill-opacity="1" fill-rule="nonzero"/></g><g clip-path="url(#20a275cac3)"><path fill="#004aad" d="M 203.757812 20.796875 C 206.058594 24.433594 208.023438 28.273438 209.621094 32.324219 C 294.375 39.722656 361.089844 111.0625 361.089844 197.703125 C 361.089844 289.25 286.613281 363.730469 195.066406 363.730469 C 120.089844 363.730469 56.574219 313.769531 36.03125 245.390625 L 24.472656 245.390625 C 45.347656 319.96875 113.917969 374.828125 195.066406 374.828125 C 292.730469 374.828125 372.1875 295.371094 372.1875 197.703125 C 372.1875 102.953125 297.402344 25.347656 203.757812 20.796875 Z M 203.757812 20.796875 " fill-opacity="1" fill-rule="nonzero"/></g></svg>